HIERARCHY
ROOT Hips
{
	OFFSET -0.001795 -0.223333 0.028219
	CHANNELS 6 Xposition Yposition Zposition Zrotation Yrotation Xrotation 
	JOINT LeftUpLeg
	{
		OFFSET 0.069520 -0.091406 -0.006815
		CHANNELS 3 Zrotation Yrotation Xrotation
		JOINT LeftLeg
		{
			OFFSET 0.034277 -0.375199 -0.004496
			CHANNELS 3 Zrotation Yrotation Xrotation
			JOINT LeftFoot
			{
				OFFSET -0.013596 -0.397961 -0.043693
				CHANNELS 3 Zrotation Yrotation Xrotation
				JOINT LeftToe
				{
					OFFSET 0.026358 -0.055791 0.119288
					CHANNELS 3 Zrotation Yrotation Xrotation
					End Site
					{
						OFFSET 0.000000 0.000000 0.000000
					}
				}
			}
		}
	}
	JOINT RightUpLeg
	{
		OFFSET -0.067670 -0.090522 -0.004320
		CHANNELS 3 Zrotation Yrotation Xrotation
		JOINT RightLeg
		{
			OFFSET -0.038290 -0.382569 -0.008850
			CHANNELS 3 Zrotation Yrotation Xrotation
			JOINT RightFoot
			{
				OFFSET 0.015774 -0.398415 -0.042312
				CHANNELS 3 Zrotation Yrotation Xrotation
				JOINT RightToe
				{
					OFFSET -0.025372 -0.048144 0.123348
					CHANNELS 3 Zrotation Yrotation Xrotation
					End Site
					{
						OFFSET 0.000000 0.000000 0.000000
					}
				}
			}
		}
	}
	JOINT Spine
	{
		OFFSET -0.002533 0.108963 -0.026696
		CHANNELS 3 Zrotation Yrotation Xrotation
		JOINT Spine1
		{
			OFFSET 0.005487 0.135180 0.001092
			CHANNELS 3 Zrotation Yrotation Xrotation
			JOINT Spine2
			{
				OFFSET 0.001457 0.052922 0.025425
				CHANNELS 3 Zrotation Yrotation Xrotation
				JOINT Neck
				{
					OFFSET -0.002778 0.213870 -0.042857
					CHANNELS 3 Zrotation Yrotation Xrotation
					JOINT Head
					{
						OFFSET 0.005152 0.064970 0.051349
						CHANNELS 3 Zrotation Yrotation Xrotation
						End Site
						{
							OFFSET 0.000000 0.000000 0.000000
						}
					}
				}
				JOINT LeftShoulder
				{
					OFFSET 0.078845 0.121749 -0.034090
					CHANNELS 3 Zrotation Yrotation Xrotation
					JOINT LeftArm
					{
						OFFSET 0.090977 0.030469 -0.008868
						CHANNELS 3 Zrotation Yrotation Xrotation
						JOINT LeftForeArm
						{
							OFFSET 0.259612 -0.012772 -0.027456
							CHANNELS 3 Zrotation Yrotation Xrotation
							JOINT LeftHand
							{
								OFFSET 0.249234 0.008986 -0.001171
								CHANNELS 3 Zrotation Yrotation Xrotation
								End Site
								{
									OFFSET 0.000000 0.000000 0.000000
								}
							}
						}
					}
				}
				JOINT RightShoulder
				{
					OFFSET -0.081759 0.118833 -0.038615
					CHANNELS 3 Zrotation Yrotation Xrotation
					JOINT RightArm
					{
						OFFSET -0.096012 0.032551 -0.009143
						CHANNELS 3 Zrotation Yrotation Xrotation
						JOINT RightForeArm
						{
							OFFSET -0.253742 -0.013329 -0.021401
							CHANNELS 3 Zrotation Yrotation Xrotation
							JOINT RightHand
							{
								OFFSET -0.255298 0.007772 -0.005559
								CHANNELS 3 Zrotation Yrotation Xrotation
								End Site
								{
									OFFSET 0.000000 0.000000 0.000000
								}
							}
						}
					}
				}
			}
		}
	}
}
MOTION
Frames: 5
Frame Time: 0.050000
-0.050263 0.946907 -0.013672 -7.563696 -20.883993 9.161341 15.410079 2.426454 -20.208078 -3.150435 1.016314 13.936457 0.867991 4.389846 16.695986 0.000000 0.000000 0.000000 -1.191338 1.047688 -10.161855 2.113896 0.175731 7.125603 -0.725837 -10.869867 16.364351 0.000000 0.000000 0.000000 -15.381374 5.292991 27.725857 0.747984 -0.147952 -18.891309 -6.024476 2.078532 24.501833 -6.472164 5.059155 -7.469442 0.000000 0.000000 0.000000 -23.391587 -20.924745 13.875638 -26.549822 -51.427270 5.305048 -5.120849 -32.506129 3.084802 0.000000 0.000000 0.000000 -7.114526 12.209993 4.237585 30.803907 11.295646 -1.889868 113.366994 66.295871 87.881700 0.000000 0.000000 0.000000 
-0.049885 0.946681 -0.013808 -7.565092 -20.677279 9.065924 15.360473 2.385147 -20.149955 -3.082698 0.984141 13.863979 0.794444 4.286030 16.574411 0.000000 0.000000 0.000000 -1.185715 1.041981 -10.118890 2.133992 0.174285 7.183811 -0.862022 -11.095699 16.475214 0.000000 0.000000 0.000000 -15.520602 5.298582 27.632347 1.034125 -0.229509 -18.646881 -5.964808 2.359544 24.339097 -6.309246 4.976039 -7.278127 0.000000 0.000000 0.000000 -23.130965 -21.115857 13.781714 -27.307291 -51.504315 5.661709 -5.148614 -32.610175 3.105717 0.000000 0.000000 0.000000 -7.183046 12.311959 4.245310 30.678323 11.074260 -1.907352 115.121281 66.596600 90.441653 0.000000 0.000000 0.000000 
-0.049662 0.946827 -0.014142 -7.515004 -20.168644 9.101608 15.386739 2.352361 -20.246717 -3.207452 0.981891 13.588231 0.566164 4.013162 16.605516 0.000000 0.000000 0.000000 -1.046570 1.069068 -10.335654 1.966946 0.197947 7.350645 -1.228675 -11.772328 16.923745 0.000000 0.000000 0.000000 -15.558131 5.286759 27.754241 1.277110 -0.272780 -18.879570 -5.874749 2.327676 24.584361 -6.309403 4.994705 -7.293148 0.000000 0.000000 0.000000 -22.943900 -21.032065 13.632669 -28.120170 -51.880778 6.070961 -4.830696 -32.601768 3.028606 0.000000 0.000000 0.000000 -7.238815 12.160442 4.190999 30.506178 11.090527 -1.904526 116.427516 66.864619 92.355352 0.000000 0.000000 0.000000 
-0.049672 0.946760 -0.014641 -7.566743 -19.662367 9.262565 15.511565 2.360199 -20.503883 -3.294158 0.975973 13.425440 0.343246 3.744328 16.601039 0.000000 0.000000 0.000000 -0.982100 1.071932 -10.356850 2.068613 0.164351 7.053962 -1.461570 -12.169577 17.231450 0.000000 0.000000 0.000000 -15.588888 5.217713 27.584686 1.458822 -0.318970 -18.630718 -5.769154 2.363992 24.517405 -6.297556 4.974099 -7.721724 0.000000 0.000000 0.000000 -22.504126 -21.036599 13.433706 -29.002218 -52.238916 6.560640 -4.448864 -32.658678 2.936102 0.000000 0.000000 0.000000 -7.494403 12.166970 4.178263 30.457701 11.168834 -1.873418 118.060356 67.302795 94.922794 0.000000 0.000000 0.000000 
-0.049890 0.946760 -0.015234 -7.508288 -19.275087 9.378078 15.407174 2.317575 -20.739923 -3.162916 0.917118 13.293274 0.182379 3.556272 16.641383 0.000000 0.000000 0.000000 -0.970802 1.085591 -10.472744 2.123134 0.149694 6.974296 -1.745935 -12.597949 17.357237 0.000000 0.000000 0.000000 -15.737445 5.268810 27.731929 1.592056 -0.334968 -18.807862 -5.688407 2.549258 24.570960 -6.154134 4.905153 -7.567415 0.000000 0.000000 0.000000 -22.416509 -21.070777 13.313984 -29.456526 -52.433445 6.800382 -4.434733 -32.751169 2.947326 0.000000 0.000000 0.000000 -7.619770 12.166826 4.154801 30.535097 11.439822 -1.819344 118.980610 67.554420 96.601460 0.000000 0.000000 0.000000 
